<svg xmlns="http://www.w3.org/2000/svg" xmlns:xlink="http://www.w3.org/1999/xlink" version="1.1" x="0px" y="0px" viewBox="2579.615 -88.891 100 93.098" enable-background="new 2579.615 -88.891 100 93.098" xml:space="preserve"><g><path d="M2593.398-11.822c0-2.104-2.104-4.733-5.786-4.733c-3.196,0-4.731,2.586-4.731,5.783c0,3.157,3.154,4.734,4.731,4.734   C2589.191-6.037,2593.398-5.512,2593.398-11.822z"></path><path d="M2615.109-11.822c0-2.104-2.105-4.733-5.787-4.733c-3.195,0-4.73,2.586-4.73,5.783c0,3.157,3.152,4.734,4.73,4.734   S2615.109-5.512,2615.109-11.822z"></path><path d="M2635.256-11.822c0-2.104-2.104-4.733-5.785-4.733c-3.197,0-4.731,2.586-4.731,5.783c0,3.157,3.151,4.734,4.731,4.734   C2631.049-6.037,2635.256-5.512,2635.256-11.822z"></path><path d="M2603.157-18.065c0-1.952-1.953-4.393-5.367-4.393c-2.967,0-4.39,2.398-4.39,5.366c0,2.931,2.926,4.393,4.39,4.393   S2603.157-12.209,2603.157-18.065z"></path><path d="M2624.866-19.701c0-1.952-1.952-4.395-5.369-4.395c-2.965,0-4.388,2.399-4.388,5.368c0,2.929,2.925,4.392,4.388,4.392   C2620.963-14.335,2624.866-13.847,2624.866-19.701z"></path><path d="M2645.73-19.166c0-1.952-1.952-4.394-5.367-4.394c-2.967,0-4.391,2.399-4.391,5.367c0,2.93,2.926,4.392,4.391,4.392   C2641.827-13.801,2645.73-13.312,2645.73-19.166z"></path><path d="M2656.247-11.822c0-2.104-2.104-4.733-5.784-4.733c-3.197,0-4.731,2.586-4.731,5.783c0,3.157,3.153,4.734,4.731,4.734   C2652.04-6.037,2656.247-5.512,2656.247-11.822z"></path><path d="M2596.663,0.905c0-3.257-3.815-5.896-8.524-5.896s-8.523,2.639-8.523,5.896v3.302h17.048V0.905z"></path><path d="M2618.374,0.905c0-3.257-3.815-5.896-8.524-5.896s-8.523,2.64-8.523,5.896v3.302h17.048V0.905z"></path><path d="M2638.521,0.905c0-3.257-3.816-5.896-8.524-5.896s-8.524,2.64-8.524,5.896v3.302h17.049V0.905z"></path><path d="M2659.512,0.905c0-3.257-3.814-5.896-8.523-5.896c-4.707,0-8.521,2.64-8.521,5.896v3.302h17.047V0.905H2659.512z"></path><path d="M2665.833-19.166c0-1.952-1.952-4.394-5.368-4.394c-2.967,0-4.392,2.399-4.392,5.367c0,2.93,2.927,4.392,4.392,4.392   C2661.928-13.801,2665.833-13.312,2665.833-19.166z"></path><path d="M2676.348-11.822c0-2.104-2.104-4.733-5.783-4.733c-3.197,0-4.731,2.586-4.731,5.783c0,3.157,3.153,4.734,4.731,4.734   C2672.141-6.037,2676.348-5.512,2676.348-11.822z"></path><path d="M2679.615,0.905c0-3.257-3.816-5.896-8.525-5.896c-4.707,0-8.522,2.64-8.522,5.896v3.302h17.048V0.905z"></path></g><path d="M2658.762-34.194h-56.496v-43.654h56.496V-34.194L2658.762-34.194z M2606.303-38.23h48.422v-35.582h-48.422V-38.23z"></path><path d="M2597.018-73.765c-0.164,0-0.332-0.04-0.485-0.125l-8.079-4.455c-0.488-0.269-0.666-0.883-0.396-1.371  c0.27-0.487,0.882-0.666,1.371-0.396l8.08,4.455c0.487,0.269,0.666,0.883,0.396,1.371  C2597.719-73.952,2597.374-73.765,2597.018-73.765z"></path><path d="M2597.02-63.43c-0.09,0-0.18-0.012-0.271-0.037l-6.713-1.868c-0.537-0.149-0.851-0.706-0.702-1.243  c0.149-0.537,0.704-0.851,1.243-0.702l6.713,1.869c0.537,0.148,0.851,0.706,0.702,1.243  C2597.867-63.723,2597.463-63.43,2597.02-63.43z"></path><path d="M2589.396-41.814c-0.395,0-0.77-0.233-0.932-0.62c-0.216-0.515,0.027-1.104,0.541-1.321l7.623-3.186  c0.514-0.213,1.105,0.028,1.321,0.542c0.215,0.515-0.028,1.105-0.542,1.32l-7.624,3.186  C2589.658-41.841,2589.526-41.814,2589.396-41.814z"></path><path d="M2590.453-29.528c-0.302,0-0.602-0.136-0.8-0.396c-0.34-0.441-0.257-1.074,0.185-1.415l6.566-5.045  c0.441-0.341,1.076-0.257,1.415,0.186c0.34,0.441,0.257,1.075-0.185,1.415l-6.566,5.046  C2590.885-29.597,2590.668-29.528,2590.453-29.528z"></path><path d="M2590.76-53.794c-0.502,0-0.938-0.375-1-0.888c-0.066-0.553,0.328-1.056,0.881-1.124l6.254-0.763  c0.55-0.064,1.056,0.326,1.123,0.879c0.068,0.554-0.325,1.057-0.879,1.124l-6.254,0.763  C2590.842-53.797,2590.801-53.794,2590.76-53.794z"></path><path d="M2671.629-32.259c-0.164,0-0.332-0.041-0.484-0.125l-8.08-4.456c-0.487-0.269-0.665-0.883-0.396-1.369  c0.27-0.489,0.887-0.665,1.371-0.397l8.08,4.455c0.487,0.27,0.665,0.883,0.396,1.372  C2672.33-32.447,2671.984-32.259,2671.629-32.259z"></path><path d="M2671.176-44.27c-0.09,0-0.182-0.012-0.271-0.037l-6.714-1.869c-0.535-0.148-0.85-0.706-0.7-1.242  c0.149-0.537,0.706-0.852,1.242-0.702l6.714,1.869c0.535,0.148,0.85,0.705,0.7,1.242C2672.022-44.562,2671.617-44.27,2671.176-44.27  z"></path><path d="M2663.553-63.657c-0.396,0-0.771-0.233-0.933-0.62c-0.215-0.515,0.027-1.105,0.542-1.321l7.623-3.186  c0.514-0.212,1.105,0.027,1.321,0.542c0.215,0.515-0.028,1.104-0.542,1.32l-7.624,3.187  C2663.813-63.683,2663.682-63.657,2663.553-63.657z"></path><path d="M2663.553-74.084c-0.346,0-0.682-0.178-0.869-0.495c-0.283-0.479-0.125-1.099,0.354-1.382l7.712-4.565  c0.482-0.283,1.1-0.124,1.383,0.354c0.283,0.479,0.125,1.099-0.354,1.383l-7.713,4.564  C2663.904-74.13,2663.727-74.084,2663.553-74.084z"></path><path d="M2664.463-54.102c-0.504,0-0.938-0.375-1-0.887c-0.068-0.553,0.326-1.056,0.879-1.124l6.256-0.763  c0.562-0.064,1.057,0.327,1.123,0.88c0.068,0.553-0.326,1.056-0.879,1.124l-6.256,0.763  C2664.545-54.104,2664.504-54.102,2664.463-54.102z"></path><path d="M2639.434-56.778l-12.133-6.005c-0.312-0.156-0.684-0.138-0.98,0.047c-0.296,0.185-0.477,0.509-0.477,0.856v12.012  c0,0.349,0.181,0.673,0.477,0.856c0.162,0.102,0.347,0.152,0.531,0.152c0.154,0,0.307-0.035,0.447-0.104l12.135-6.006  c0.344-0.17,0.562-0.521,0.562-0.903C2639.996-56.258,2639.778-56.607,2639.434-56.778z"></path><path d="M2606.746-81.229c-0.326,0-0.646-0.157-0.84-0.448l-3.77-5.643c-0.311-0.464-0.186-1.09,0.277-1.4  c0.463-0.31,1.09-0.186,1.4,0.278l3.771,5.643c0.309,0.465,0.184,1.091-0.279,1.4C2607.135-81.284,2606.939-81.229,2606.746-81.229z  "></path><path d="M2655.334-80.616c-0.266,0-0.529-0.104-0.729-0.312c-0.387-0.401-0.373-1.041,0.029-1.427l5.732-5.499  c0.402-0.386,1.042-0.373,1.428,0.03c0.385,0.401,0.373,1.041-0.029,1.427l-5.733,5.499  C2655.836-80.709,2655.586-80.616,2655.334-80.616z"></path><path d="M2620.69-82.074c-0.375,0-0.734-0.209-0.909-0.569l-1.885-3.887c-0.243-0.501-0.033-1.105,0.468-1.348  c0.502-0.241,1.106-0.034,1.349,0.467l1.885,3.887c0.244,0.501,0.033,1.105-0.467,1.349  C2620.989-82.107,2620.838-82.074,2620.69-82.074z"></path><path d="M2644.03-81.259c-0.203,0-0.407-0.061-0.585-0.188c-0.453-0.324-0.559-0.954-0.234-1.408l2.814-3.946  c0.324-0.452,0.951-0.558,1.408-0.234c0.453,0.324,0.559,0.954,0.234,1.408l-2.814,3.945  C2644.656-81.405,2644.346-81.259,2644.03-81.259z"></path><path d="M2631.424-81.163c-0.558,0-1.009-0.452-1.009-1.01v-5.513c0-0.557,0.452-1.009,1.009-1.009c0.558,0,1.01,0.452,1.01,1.009  v5.513C2632.432-81.616,2631.981-81.163,2631.424-81.163z"></path></svg>